<svg xmlns="http://www.w3.org/2000/svg"  viewBox="0 0 24 24" width="24px" height="24px"><path d="M 11.992188 -0.0078125 A 0.50005 0.50005 0 0 0 11.5 0.5 L 11.5 2.5 A 0.50005 0.50005 0 1 0 12.5 2.5 L 12.5 0.5 A 0.50005 0.50005 0 0 0 11.992188 -0.0078125 z M 3.8632812 3.3632812 A 0.50005 0.50005 0 0 0 3.5136719 4.2207031 L 4.9277344 5.6347656 A 0.50005 0.50005 0 1 0 5.6347656 4.9277344 L 4.2207031 3.5136719 A 0.50005 0.50005 0 0 0 3.8632812 3.3632812 z M 20.123047 3.3632812 A 0.50005 0.50005 0 0 0 19.779297 3.5136719 L 18.365234 4.9277344 A 0.50005 0.50005 0 1 0 19.072266 5.6347656 L 20.486328 4.2207031 A 0.50005 0.50005 0 0 0 20.123047 3.3632812 z M 12 5 C 8.1399268 5 5 8.1399296 5 12 C 5 15.86007 8.1399268 19 12 19 C 15.860073 19 19 15.86007 19 12 C 19 8.1399296 15.860073 5 12 5 z M 12 6 C 15.319633 6 18 8.6803688 18 12 C 18 15.319631 15.319633 18 12 18 C 8.6803666 18 6 15.319631 6 12 C 6 8.6803688 8.6803666 6 12 6 z M 0.5 11.5 A 0.50005 0.50005 0 1 0 0.5 12.5 L 2.1113281 12.5 L 2.5 12.5 A 0.50005 0.50005 0 1 0 2.5 11.5 L 2.1113281 11.5 L 0.5 11.5 z M 21.5 11.5 A 0.50005 0.50005 0 1 0 21.5 12.5 L 23.5 12.5 A 0.50005 0.50005 0 1 0 23.5 11.5 L 21.5 11.5 z M 5.2714844 18.212891 A 0.50005 0.50005 0 0 0 4.9277344 18.365234 L 3.5136719 19.779297 A 0.50005 0.50005 0 1 0 4.2207031 20.486328 L 5.6347656 19.072266 A 0.50005 0.50005 0 0 0 5.2714844 18.212891 z M 18.712891 18.212891 A 0.50005 0.50005 0 0 0 18.365234 19.072266 L 19.779297 20.486328 A 0.50005 0.50005 0 1 0 20.486328 19.779297 L 19.072266 18.365234 A 0.50005 0.50005 0 0 0 18.712891 18.212891 z M 11.992188 20.992188 A 0.50005 0.50005 0 0 0 11.5 21.5 L 11.5 23.5 A 0.50005 0.50005 0 1 0 12.5 23.5 L 12.5 21.5 A 0.50005 0.50005 0 0 0 11.992188 20.992188 z"/></svg>